<svg xmlns="http://www.w3.org/2000/svg" width="251" height="251" viewBox="0 0 251 251" fill="none">
  <path opacity="0.3" fill-rule="evenodd" clip-rule="evenodd" d="M245.273 221.792C226.048 222.371 218.647 222.629 218.571 222.723C218.524 222.782 222.255 224.763 226.862 227.126L235.238 231.421L235.207 232.335C235.154 233.898 235.401 250.114 235.479 250.177C235.52 250.209 238.992 243.821 243.196 235.979C247.399 228.138 250.811 221.702 250.778 221.676C250.745 221.65 248.267 221.703 245.273 221.792ZM231.109 233.017C230.865 233.047 229.611 233.534 228.321 234.099C226.399 234.941 225.971 235.233 225.953 235.719C225.939 236.063 226.112 236.36 226.362 236.426C226.913 236.571 231.694 234.387 231.797 233.943C231.921 233.408 231.588 232.959 231.109 233.017ZM222.467 236.821C222.178 236.683 219.202 237.606 217.52 238.354C216.672 238.732 216.436 239.57 217.09 239.882C217.442 240.05 222.069 238.429 222.532 237.976C222.905 237.61 222.871 237.014 222.467 236.821ZM213.166 240.005C212.957 239.951 211.609 240.258 210.171 240.689C208.071 241.32 207.549 241.573 207.516 241.979C207.435 242.97 207.978 243.014 210.552 242.225C211.906 241.81 213.152 241.335 213.322 241.169C213.729 240.769 213.644 240.131 213.166 240.005ZM203.727 242.701C203.476 242.581 200.099 243.313 198.457 243.843C197.764 244.067 197.74 245.057 198.423 245.237C198.846 245.349 203.547 244.291 203.936 243.996C204.211 243.788 204.062 242.861 203.727 242.701ZM194.216 245.02C193.747 244.844 189.342 245.595 188.597 245.979C188.171 246.198 188.235 246.844 188.712 247.136C189.229 247.453 194.341 246.424 194.57 245.957C194.836 245.415 194.765 245.227 194.216 245.02ZM184.909 246.967C184.736 246.631 184.205 246.612 181.926 246.862C179.043 247.177 178.318 247.539 178.777 248.432C179.136 249.129 185.211 248.219 185.13 247.48C185.124 247.423 185.024 247.192 184.909 246.967ZM175.021 247.945C174.788 247.758 173.683 247.764 171.874 247.962C169.535 248.218 169.066 248.342 168.964 248.73C168.737 249.589 169.757 249.832 172.381 249.545C174.622 249.3 175.462 248.979 175.398 248.395C175.389 248.306 175.219 248.104 175.021 247.945ZM165.384 248.748C165.246 248.576 163.959 248.439 162.448 248.436C160.1 248.431 159.708 248.49 159.379 248.9C158.687 249.762 159.613 250.101 162.378 249.995C165.459 249.877 166.081 249.619 165.384 248.748ZM152.722 248.357C150.022 248.21 149.822 248.231 149.55 248.692C149.075 249.496 149.765 249.773 152.602 249.918C155.315 250.056 156.01 249.838 155.733 248.934C155.637 248.618 154.889 248.475 152.722 248.357ZM142.967 247.653C140.572 247.365 140.169 247.377 139.868 247.752C139.2 248.584 139.843 248.912 142.71 249.202C144.255 249.358 145.63 249.4 145.765 249.294C145.9 249.189 145.945 248.851 145.865 248.544C145.742 248.07 145.305 247.935 142.967 247.653ZM135.901 246.847C135.46 246.637 131.074 245.885 130.572 245.933C130.045 245.984 129.827 246.6 130.177 247.048C130.476 247.431 135.506 248.381 135.97 248.142C136.358 247.942 136.31 247.042 135.901 246.847ZM123.786 244.275C121.391 243.702 120.987 243.673 120.686 244.047C120.125 244.747 120.849 245.192 123.615 245.847C126.28 246.478 126.929 246.404 126.69 245.5C126.571 245.046 125.995 244.804 123.786 244.275ZM114.683 241.646C112.09 240.781 111.337 240.71 111.178 241.316C111.008 241.961 111.442 242.233 114.03 243.101C116.643 243.978 117.285 243.962 117.182 243.02C117.134 242.578 116.602 242.286 114.683 241.646ZM105.379 238.217C102.81 237.139 101.951 237.116 102.221 238.135C102.414 238.862 107.016 240.783 107.71 240.426C108.612 239.962 107.877 239.265 105.379 238.217ZM95.2068 178.242C94.5375 178.315 94.4421 178.532 94.6535 179.499C94.714 179.776 94.65 180.925 94.5112 182.052C94.3293 183.535 94.3501 184.176 94.5863 184.366C95.5708 185.156 96.3405 182.871 96.0596 179.992C95.8868 178.221 95.8621 178.17 95.2068 178.242ZM92.5796 172.971C91.5954 172.311 90.3722 172.125 88.9522 172.419C88.2447 172.565 88.0487 172.731 88.094 173.144C88.1263 173.439 88.3375 173.684 88.5633 173.689C90.452 173.73 91.1783 173.901 92.0401 174.505C93.0935 175.244 93.8081 175.339 93.9469 174.761C94.0672 174.258 93.6126 173.663 92.5796 172.971ZM96.7517 234.216C94.4242 232.996 93.5888 232.777 93.3303 233.319C93.0684 233.869 93.6821 234.402 95.8447 235.506C97.988 236.6 98.7153 236.792 99.0643 236.358C99.4755 235.846 98.9737 235.381 96.7517 234.216ZM92.4235 187.065C92.162 187.044 91.5831 187.369 91.1369 187.787C90.6911 188.205 89.7237 188.936 88.9869 189.412C88.0854 189.993 87.6658 190.442 87.7031 190.782C87.8311 191.952 89.2704 191.403 91.9703 189.156C93.2087 188.125 93.4211 187.144 92.4235 187.065ZM84.453 174.776C83.57 174.872 80.2936 178.782 80.5988 179.375C80.9613 180.079 81.5758 179.817 82.7855 178.441C83.4063 177.734 84.2643 176.782 84.6919 176.324C85.5568 175.398 85.444 174.667 84.453 174.776ZM88.4641 228.71C86.9452 227.5 86.116 227.008 85.8355 227.153C85.1677 227.497 85.442 228.154 86.788 229.437C88.4242 230.996 89.8568 231.855 90.3747 231.589C91.1493 231.19 90.6718 230.47 88.4641 228.71ZM83.1107 192.25C78.6083 193.363 78.2053 193.554 78.6291 194.377C78.8921 194.887 79.8364 194.789 82.4798 193.977C84.5524 193.34 85.0155 192.983 84.6607 192.293C84.508 191.996 84.1749 191.987 83.1107 192.25ZM78.6463 182.649C78.1233 182.706 77.8067 183.179 76.9205 185.23C76.012 187.331 75.8987 187.801 76.2247 188.117C76.8854 188.756 77.2739 188.346 78.4015 185.817C79.5854 183.161 79.6333 182.541 78.6463 182.649ZM82.2446 222.445C81.5992 221.591 80.8776 220.638 80.6408 220.326C80.1767 219.714 79.2428 219.65 79.1015 220.221C79.0002 220.63 80.8944 223.554 81.9389 224.599C82.4211 225.083 82.7967 225.246 83.0853 225.097C83.7314 224.765 83.5379 224.154 82.2446 222.445ZM75.2691 191.758C74.7439 191.816 74.5682 192.056 74.3653 192.995L74.1135 194.161L71.5546 194.287C69.3333 194.397 68.9795 194.476 68.873 194.88C68.6236 195.827 69.3848 196.09 71.6604 195.84L73.8165 195.604L73.7456 196.53C73.697 197.163 73.8047 197.542 74.0847 197.727C74.6063 198.071 75.3464 197.702 75.3007 197.12C75.2816 196.875 75.4604 195.793 75.6983 194.716C76.2354 192.282 76.1455 191.662 75.2691 191.758ZM77.5964 214.47C77.2916 213.739 76.859 212.638 76.6355 212.024C76.3266 211.176 76.1 210.922 75.6912 210.967C74.8464 211.059 74.8662 211.7 75.7919 214.226C76.672 216.627 77.1669 217.271 77.8598 216.914C78.3513 216.661 78.2957 216.145 77.5964 214.47ZM74.5187 201.361C73.5628 201.109 73.352 201.898 73.6494 204.614C73.9555 207.412 74.2678 208.026 75.095 207.459C75.5056 207.178 75.5255 206.784 75.2542 204.305C75.0047 202.026 74.8612 201.451 74.5187 201.361ZM64.4716 194.393C62.7327 194.153 59.7081 193.988 59.4265 194.118C59.0568 194.288 59.1407 195.207 59.5436 195.399C59.7093 195.478 60.981 195.649 62.3692 195.778C64.2522 195.954 64.9774 195.927 65.2245 195.672C65.744 195.135 65.3809 194.518 64.4716 194.393ZM42.8355 0.769003C42.2738 0.724545 40.6305 3.48292 40.8315 4.13359C41.11 5.03635 41.8694 4.6935 42.7233 3.27924C43.5888 1.84485 43.6343 0.832619 42.8355 0.769003ZM39.4765 7.68878C39.2789 7.53018 38.9777 7.41566 38.8074 7.4343C38.4066 7.47817 35.9166 12.117 35.9816 12.6988C36.0372 13.1966 36.6523 13.4491 37.0392 13.1331C37.3483 12.8808 39.882 8.39958 39.855 8.15292C39.8445 8.05629 39.6741 7.84742 39.4765 7.68878ZM53.0964 192.769C50.1614 192.078 49.728 192.071 49.56 192.709C49.3819 193.386 49.932 193.7 52.2523 194.25C55.026 194.908 56.0439 194.769 55.7421 193.773C55.6656 193.521 54.6461 193.134 53.0964 192.769ZM34.2933 16.1777C33.853 16.1628 33.4479 16.7009 32.4519 18.6226C31.1722 21.0915 31.0767 21.9364 32.0902 21.8255C32.6737 21.7616 35.1704 17.2367 34.9771 16.5933C34.9114 16.3752 34.6039 16.1882 34.2933 16.1777ZM30.1167 24.8106C29.5538 24.4391 29.1311 24.939 27.9232 27.4053C26.7685 29.763 26.6731 30.7007 27.613 30.4599C28.0189 30.3556 28.5818 29.5744 29.3895 27.9931C30.6556 25.5147 30.7246 25.2122 30.1167 24.8106ZM43.6177 190.019C40.9735 189.034 40.2605 189.018 40.3619 189.944C40.4038 190.327 41.093 190.725 42.9603 191.444C45.5312 192.435 46.3713 192.447 46.2668 191.492C46.2263 191.122 45.5065 190.722 43.6177 190.019ZM26.1134 33.8365C25.6368 32.9106 24.9201 33.5517 23.7932 35.9116C22.6288 38.3493 22.5176 39.3969 23.4336 39.2966C23.7821 39.2585 24.3211 38.4615 25.1295 36.7895C26.5089 33.9366 26.3739 34.3422 26.1134 33.8365ZM21.3175 42.4503C20.849 42.4347 20.5327 42.9164 19.6104 45.0499C18.7091 47.1353 18.5515 47.7397 18.8374 48.0162C19.5174 48.6743 19.9006 48.2795 21.0131 45.775C22.1926 43.1198 22.2511 42.4817 21.3175 42.4503ZM34.8109 185.948C32.8923 184.874 32.1794 184.601 31.8892 184.832C31.1943 185.385 31.561 185.86 33.6315 187.093C35.7143 188.333 36.6856 188.663 37.1611 188.292C37.7557 187.828 37.2287 187.302 34.8109 185.948ZM17.4247 51.4253C17.035 51.468 16.6131 52.1579 15.8433 54.0103C14.7707 56.5923 14.7476 57.4238 15.756 57.1577C16.1534 57.0528 16.604 56.3261 17.2677 54.7199C18.2694 52.2959 18.3156 51.3278 17.4247 51.4253ZM26.6602 180.578C25.1414 179.368 24.3122 178.876 24.0317 179.021C23.2597 179.419 23.7269 180.181 25.74 181.81C27.602 183.316 28.3746 183.655 28.7839 183.145C29.1398 182.702 28.7833 182.271 26.6602 180.578ZM13.863 60.4184C13.4849 60.4598 13.0904 61.1828 12.3583 63.1755C11.4422 65.6697 11.4034 65.9066 11.8529 66.2677C12.1206 66.4825 12.4738 66.5537 12.6379 66.4259C13.1135 66.0546 14.7778 61.1436 14.5669 60.7338C14.4618 60.5296 14.145 60.3875 13.863 60.4184ZM10.9089 69.6427C10.2126 69.4594 9.90352 69.9472 9.07244 72.5399C8.29271 74.973 8.3332 75.7721 9.23192 75.6737C9.60545 75.6328 9.95961 74.9658 10.579 73.1365C11.5193 70.3591 11.5705 69.8166 10.9089 69.6427ZM19.4762 173.984C18.4435 172.886 17.5569 171.993 17.5059 171.998C17.0622 172.047 16.6046 172.512 16.646 172.873C16.6738 173.116 17.4967 174.179 18.475 175.235C19.7708 176.633 20.4183 177.137 20.8609 177.091C21.874 176.984 21.4921 176.128 19.4762 173.984ZM8.15555 79.0719C7.39216 78.5677 7.06516 79.0585 6.29628 81.8602C5.60389 84.3826 5.58366 84.6219 6.03337 84.9826C6.72418 85.5374 7.04784 85.036 7.89236 82.102C8.71548 79.242 8.69928 79.4308 8.15555 79.0719ZM13.6137 166.586C11.9925 164.206 11.8439 164.068 11.2327 164.383C10.6047 164.706 10.8078 165.309 12.2441 167.385C13.8124 169.651 14.1714 169.982 14.7443 169.687C15.385 169.357 15.2519 168.991 13.6137 166.586ZM5.81805 88.6523C5.66928 88.4659 5.32382 88.3814 5.0505 88.4643C4.33601 88.6812 3.14366 93.9147 3.68866 94.4422C4.3433 95.0758 4.82099 94.3522 5.46208 91.7554C6.18569 88.8246 6.15669 89.0763 5.81805 88.6523ZM3.12979 98.0545C2.55493 98.1174 2.38619 98.6494 1.871 102.027C1.65418 103.447 1.67433 103.879 1.96747 104.114C2.628 104.644 3.14555 103.848 3.54978 101.68C4.02589 99.1251 3.89222 97.9711 3.12979 98.0545ZM7.10256 155.794C6.54012 155.855 6.47326 155.978 6.60888 156.703C6.87911 158.149 8.66121 161.346 9.22229 161.391C10.1452 161.466 10.0742 160.75 8.90818 158.225C7.87467 155.986 7.6847 155.73 7.10256 155.794ZM1.95867 107.689C1.24634 107.501 0.948787 108.308 0.721862 111.043C0.564531 112.937 0.598594 113.601 0.863576 113.813C1.54208 114.358 2.05343 113.485 2.29718 111.368C2.60867 108.664 2.53263 107.84 1.95867 107.689ZM5.30052 148.755C4.74543 147.017 4.47215 146.504 4.08521 146.472C3.10143 146.392 3.05772 146.939 3.84171 149.51C4.62504 152.078 5.09567 152.787 5.78211 152.434C6.28524 152.175 6.21087 151.605 5.30052 148.755ZM1.20988 117.409C0.483361 117.054 0.269438 117.532 0.170437 119.729C0.0724227 121.916 0.326625 123.674 0.752762 123.757C1.42256 123.888 1.667 123.145 1.75077 120.721C1.85389 117.746 1.84981 117.721 1.20988 117.409ZM2.40241 137.007C2.22186 136.862 1.89199 136.838 1.66913 136.952C1.35214 137.115 1.31135 137.589 1.48204 139.126C1.60194 140.206 1.82523 141.538 1.9782 142.084C2.21321 142.924 2.36103 143.067 2.93102 143.004L3.60573 142.93L3.16813 140.1C2.9273 138.544 2.58266 137.152 2.40241 137.007ZM1.58731 127.352C1.43856 127.166 1.09319 127.082 0.81997 127.166C0.388489 127.299 0.335533 127.691 0.416723 130.151C0.494646 132.505 0.585964 133.045 0.95725 133.343C1.77555 134 2.15792 133.159 2.02528 130.994C1.95993 129.925 1.89544 128.745 1.88208 128.371C1.86872 127.997 1.73606 127.538 1.58731 127.352Z" fill="url(#paint0_linear_0_1684)"/>
  <defs>
    <linearGradient id="paint0_linear_0_1684" x1="260.474" y1="112.266" x2="26.2763" y2="137.9" gradientUnits="userSpaceOnUse">
      <stop stop-color="#FFBA3B"/>
      <stop offset="0.5315" stop-color="#FFA53B"/>
      <stop offset="1" stop-color="#FF983B"/>
    </linearGradient>
  </defs>
</svg>