<svg xmlns="http://www.w3.org/2000/svg" width="21" height="21" viewBox="0 0 21 21" fill="none">
  <path d="M16.3855 4.55173C15.2813 4.037 14.0858 3.6634 12.8405 3.44755C12.8295 3.4472 12.8187 3.44925 12.8086 3.45355C12.7986 3.45785 12.7896 3.46431 12.7824 3.47245C12.6329 3.74642 12.4586 4.10342 12.3423 4.37739C11.0215 4.17813 9.67819 4.17813 8.35732 4.37739C8.24109 4.09511 8.06675 3.74642 7.90901 3.47245C7.9007 3.45585 7.8758 3.44755 7.85089 3.44755C6.60557 3.6634 5.41837 4.037 4.30588 4.55173C4.29758 4.55173 4.28928 4.56003 4.28098 4.56833C2.0228 7.9473 1.40014 11.2349 1.70732 14.4894C1.70732 14.506 1.71562 14.5226 1.73223 14.5309C3.22661 15.6268 4.66288 16.2909 6.08254 16.7309C6.10744 16.7392 6.13235 16.7309 6.14065 16.7143C6.47274 16.2577 6.77161 15.7762 7.02898 15.2698C7.04558 15.2366 7.02898 15.2034 6.99577 15.1951C6.52255 15.0124 6.07424 14.7966 5.63422 14.5475C5.60102 14.5309 5.60102 14.4811 5.62592 14.4562C5.71724 14.3897 5.80857 14.315 5.89989 14.2486C5.9165 14.232 5.9414 14.232 5.95801 14.2403C8.81394 15.5437 11.894 15.5437 14.7167 14.2403C14.7333 14.232 14.7583 14.232 14.7749 14.2486C14.8662 14.3233 14.9575 14.3897 15.0488 14.4645C15.082 14.4894 15.082 14.5392 15.0405 14.5558C14.6088 14.8132 14.1522 15.0207 13.679 15.2034C13.6458 15.2117 13.6375 15.2532 13.6458 15.2781C13.9114 15.7845 14.2103 16.266 14.5341 16.7226C14.559 16.7309 14.5839 16.7392 14.6088 16.7309C16.0368 16.2909 17.473 15.6268 18.9674 14.5309C18.984 14.5226 18.9923 14.506 18.9923 14.4894C19.3576 10.7285 18.3863 7.46578 16.4187 4.56833C16.4104 4.56003 16.4021 4.55173 16.3855 4.55173ZM7.46069 12.5052C6.60557 12.5052 5.89159 11.7165 5.89159 10.7451C5.89159 9.77377 6.58897 8.98506 7.46069 8.98506C8.34072 8.98506 9.03809 9.78207 9.02979 10.7451C9.02979 11.7165 8.33241 12.5052 7.46069 12.5052ZM13.2473 12.5052C12.3922 12.5052 11.6782 11.7165 11.6782 10.7451C11.6782 9.77377 12.3755 8.98506 13.2473 8.98506C14.1273 8.98506 14.8247 9.78207 14.8164 10.7451C14.8164 11.7165 14.1273 12.5052 13.2473 12.5052Z" fill="url(#paint0_linear_0_44)"/>
  <defs>
    <linearGradient id="paint0_linear_0_44" x1="10.3464" y1="2.24996" x2="10.3464" y2="15.3463" gradientUnits="userSpaceOnUse">
      <stop stop-color="#FFBA3B"/>
      <stop offset="0.5315" stop-color="#FFA53B"/>
      <stop offset="1" stop-color="#FF983B"/>
    </linearGradient>
  </defs>
</svg>